<?xml version="1.0" encoding="UTF-8" standalone="no"?>
<svg
   width="510pt"
   height="510pt"
   version="1.1"
   viewBox="0 0 510 510"
   id="svg3678"
   sodipodi:docname="compressorsvg.svg"
   inkscape:version="1.2.1 (9c6d41e410, 2022-07-14)"
   xmlns:inkscape="http://www.inkscape.org/namespaces/inkscape"
   xmlns:sodipodi="http://sodipodi.sourceforge.net/DTD/sodipodi-0.dtd"
   xmlns="http://www.w3.org/2000/svg"
   xmlns:svg="http://www.w3.org/2000/svg">
  <sodipodi:namedview
     id="namedview19542"
     pagecolor="#505050"
     bordercolor="#eeeeee"
     borderopacity="1"
     inkscape:showpageshadow="0"
     inkscape:pageopacity="0"
     inkscape:pagecheckerboard="0"
     inkscape:deskcolor="#505050"
     inkscape:document-units="pt"
     showgrid="false"
     inkscape:zoom="1.2897059"
     inkscape:cx="339.61231"
     inkscape:cy="340.38769"
     inkscape:window-width="1728"
     inkscape:window-height="947"
     inkscape:window-x="-7"
     inkscape:window-y="336"
     inkscape:window-maximized="1"
     inkscape:current-layer="g3676" />
  <defs
     id="defs3600" />
  <g
     id="g3676">
    <path
       d="m 255.0171,3.3529076 c -139.16,0 -251.9999962,112.8400024 -251.9999962,252.0000024 0,139.16 112.8399962,252 251.9999962,252 139.16,0 252,-112.84 252,-252 0,-139.16 -112.84,-252.0000024 -252,-252.0000024 z m 0,470.4000024 c -120.4,0 -218.399997,-98 -218.399997,-218.4 0,-120.4 97.999997,-218.400002 218.399997,-218.400002 120.4,0 218.4,98.000002 218.4,218.400002 0,120.4 -98,218.4 -218.4,218.4 z"
       id="path3602"
       style="fill:#2c4a5c;fill-opacity:1" />
    <path
       d="m 327.9871,257.42291 c 0,0 79.684,43.121 122.63,-15.848 -2.1836,-28.223 -10.586,-56.449 -25.703,-82.543 -7.2812,-12.602 -15.68,-24.078 -25.199,-34.383 -14.113,47.879 -80.922,79.855 -89.207,83.664 -4.9883,-5.9922 -11.031,-11.145 -17.754,-15.176 l 0.50391,0.0547 c 0,0 77.168,-47.434 47.602,-114.130002 -25.543,-12.207002 -54.152,-19.039002 -84.336,-19.039002 -14.559,0 -28.727,1.5664 -42.391,4.6484 34.441,36.121004 28.727,109.870004 27.887,119.050004 -7.8398,1.3984 -15.289,4.0898 -22.062,7.8398 l 0.33594,-0.44922 c 0,0 -2.4648,-90.551 -75.039,-98.281002 -23.297,16.016002 -43.566,37.352002 -58.632997,63.504002 -7.2812,12.602 -12.992,25.648 -17.191,39.031 48.495997,-11.703 109.479997,30.016 117.039997,35.391 -2.5742,7.2227 -4.0898,15.008 -4.1992,23.07 l -0.22266,-0.55859 c 0,0 -79.688,-43.121 -122.639997,15.848 2.1836,28.223 10.586,56.449 25.703,82.543 7.2227,12.602 15.679997,24.078 25.198997,34.383 14.113,-47.879 80.922,-79.855 89.207,-83.66 5.0391,5.9883 11.09,11.199 17.863,15.23 l -0.66797,-0.10547 c 0,0 -77.168,47.438 -47.602,114.13 25.535,12.207 54.152,19.035 84.336,19.035 14.559,0 28.723,-1.5664 42.391,-4.6484 -34.441,-36.121 -28.727,-109.87 -27.887,-119.05 7.8945,-1.3984 15.344,-4.0898 22.121,-7.8398 l -0.33594,0.44922 c 0,0 2.457,90.551 74.984,98.281 23.352,-16.012 43.625,-37.352 58.688,-63.504 7.2812,-12.602 12.988,-25.648 17.137,-39.031 -48.434,11.703 -109.43,-30.016 -116.98,-35.391 2.5742,-7.2227 4.082,-15.008 4.1992,-23.07 z m -72.969,48.328 c -27.832,0 -50.398,-22.566 -50.398,-50.398 0,-27.832 22.566,-50.398 50.398,-50.398 27.832,0 50.398,22.566 50.398,50.398 0,27.832 -22.566,50.398 -50.398,50.398 z"
       id="path3604"
       style="fill:#2c4a5c;fill-opacity:1" />
  </g>
</svg>
