<?xml version="1.0" encoding="UTF-8" standalone="no"?>
<svg
   width="385.56pt"
   height="392.00299pt"
   version="1.1"
   viewBox="0 0 385.56 392.00299"
   id="svg3254"
   sodipodi:docname="gearsvg.svg"
   inkscape:version="1.2.1 (9c6d41e410, 2022-07-14)"
   xmlns:inkscape="http://www.inkscape.org/namespaces/inkscape"
   xmlns:sodipodi="http://sodipodi.sourceforge.net/DTD/sodipodi-0.dtd"
   xmlns="http://www.w3.org/2000/svg"
   xmlns:svg="http://www.w3.org/2000/svg">
  <sodipodi:namedview
     id="namedview18680"
     pagecolor="#505050"
     bordercolor="#eeeeee"
     borderopacity="1"
     inkscape:showpageshadow="0"
     inkscape:pageopacity="0"
     inkscape:pagecheckerboard="0"
     inkscape:deskcolor="#505050"
     inkscape:document-units="pt"
     showgrid="false"
     inkscape:zoom="1.6779209"
     inkscape:cx="256.86551"
     inkscape:cy="261.63331"
     inkscape:window-width="1728"
     inkscape:window-height="947"
     inkscape:window-x="-7"
     inkscape:window-y="336"
     inkscape:window-maximized="1"
     inkscape:current-layer="g3252" />
  <defs
     id="defs3186" />
  <g
     id="g3252">
    <path
       d="m 351.25941,147.76156 c 2.1328,-5.0078 3.793,-10.281 4.9219,-15.59 l 0.39062,-1.7852 28.965,-15.898 -1.7852,-20.511998 -31.316,-10.629 -0.69531,-1.6953 c -2.0508,-5.0508 -4.5742,-9.9297 -7.5781,-14.504 l -1.0039,-1.5234 9.2344,-31.754 -15.809,-13.238 -29.664,14.633 -1.6953,-0.69531 c -5.0078,-2.1328 -10.281,-3.793 -15.59,-4.9219 l -1.7852,-0.39062 -15.812,-29.06199986 -20.512,1.78519996 -10.629,31.3159999 -1.6953,0.69531 c -5.0508,2.0508 -9.9297,4.5742 -14.504,7.5781 l -1.5234,1.0039 -31.754,-9.2344 -13.238,15.809 14.582,29.574 -0.69531,1.6953 c -2.1328,5.0078 -3.793,10.281 -4.9219,15.59 l -0.39062,1.7852 -28.965,15.897998 1.7852,20.512 31.316,10.629 0.69531,1.6953 c 2.0508,5.0508 4.5742,9.9297 7.5781,14.504 l 1.0039,1.5234 -9.2344,31.754 15.809,13.238 29.574,-14.594 1.6953,0.69531 c 5.0078,2.1328 10.281,3.793 15.59,4.9219 l 1.7852,0.39062 15.898,28.965 20.512,-1.7852 10.629,-31.316 1.6953,-0.69531 c 5.0508,-2.0508 9.9297,-4.5742 14.504,-7.5781 l 1.5234,-1.0039 31.754,9.2344 13.238,-15.809 -14.633,-29.664 z m -126.4,-29.574 c -2.2617,-25.827998 16.855,-48.608998 42.684,-50.870998 25.828,-2.2617 48.609,16.855 50.871,42.683998 2.2617,25.828 -16.855,48.609 -42.684,50.871 -25.828,2.2656 -48.602,-16.855 -50.871,-42.684 z m -61.934,135.15 0.69531,-1.6953 26.395,-8.9727 1.4375,-16.555 -24.434,-13.418 -0.39062,-1.7422 c -0.95703,-4.4844 -2.3516,-8.8867 -4.1367,-13.109 l -0.69531,-1.6953 12.324,-25 -10.711,-12.762 -26.746,7.7969 -1.5234,-1.0039 c -3.832,-2.4805 -7.9297,-4.6133 -12.152,-6.3633 l -1.6953,-0.69531 -8.9727,-26.355 -16.555003,-1.4375 -13.418,24.434 -1.7852,0.39062 c -4.4844,0.95703 -8.8867,2.3516 -13.109,4.1367 l -1.6953,0.69531 -25,-12.324 -12.762,10.672 7.7969,26.746 -1.0039,1.5234 c -2.4805,3.832 -4.6133,7.9297 -6.3633,12.152 l -0.65625,1.7852 -26.3549999,8.9727 -1.43750003,16.555 24.43399993,13.418 0.39062,1.7852 c 0.95703,4.4844 2.3516,8.8867 4.1367,13.109 l 0.69531,1.6953 -12.324,25 10.711,12.762 26.746,-7.7969 1.5234,1.0039 c 3.832,2.4805 7.9297,4.6133 12.152,6.3633 l 1.6953,0.69531 8.9727,26.355 16.555,1.4375 13.418003,-24.434 1.7852,-0.39062 c 4.4844,-0.95703 8.8867,-2.3516 13.066,-4.1367 l 1.6953,-0.69531 25,12.324 12.762,-10.711 -7.7969,-26.746 1.0039,-1.5234 c 2.4531,-3.8789 4.5859,-7.9727 6.3281,-12.246 z m -27.66,-23.777 c -1.9141,21.863 -21.211,38.023 -43.074003,36.152 -21.863,-1.9141 -38.023,-21.211 -36.152,-43.074 1.9141,-21.863 21.211,-38.023 43.074,-36.152 21.914003,1.9609 38.074003,21.207 36.152003,43.074 z m 172.44,97.348 0.39063,-1.7852 19.863,-10.887 -1.0859,-12.633 -21.43,-7.2734 -0.69531,-1.6953 c -1.3945,-3.4375 -3.0898,-6.7539 -5.1406,-9.8438 l -1.0078,-1.5312 6.3633,-21.734 -9.7109,-8.1406 -20.293,10.02 -1.6953,-0.69531 c -3.3984,-1.4375 -6.9648,-2.5703 -10.586,-3.3555 l -1.7852,-0.39062 -10.887,-19.863 -12.633,1.0859 -7.2734,21.43 -1.6953,0.69531 c -3.4375,1.3945 -6.7539,3.0898 -9.8438,5.1406 l -1.5234,1.0039 -21.734,-6.3633 -8.1875,9.7109 10.02,20.293 -0.69531,1.6953 c -1.4375,3.3984 -2.5703,6.9648 -3.3555,10.586 l -0.39062,1.7852 -19.863,10.887 1.0859,12.633 21.43,7.2734 0.69531,1.6953 c 1.3945,3.4375 3.0898,6.7539 5.1406,9.8438 l 1.0039,1.5234 -6.3633,21.734 9.7109,8.1406 20.293,-10.02 1.6953,0.69531 c 3.3984,1.4375 6.9648,2.5703 10.586,3.3555 l 1.7852,0.39063 10.883,19.883 12.633,-1.0859 7.2734,-21.43 1.6953,-0.69531 c 3.4375,-1.3945 6.7539,-3.0898 9.8438,-5.1406 l 1.5234,-1.0039 21.734,6.3633 8.1406,-9.7109 -10.02,-20.293 0.69531,-1.6953 c 1.4883,-3.4531 2.625,-6.9805 3.4102,-10.598 z m -89.727,-9.4531 c -1.5664,-17.902 11.672,-33.668 29.574,-35.234 17.902,-1.5664 33.668,11.672 35.234,29.574 1.566,17.902 -11.672,33.668 -29.574,35.234 -17.898,1.5664 -33.668,-11.672 -35.234,-29.574 z"
       id="path3188"
       style="fill:#2c4a5c;fill-opacity:1" />
  </g>
</svg>
