<?xml version="1.0" encoding="UTF-8" standalone="no"?>
<svg
   width="440.22101pt"
   height="509.43399pt"
   version="1.1"
   viewBox="0 0 440.22101 509.43399"
   id="svg22122"
   xmlns="http://www.w3.org/2000/svg"
   xmlns:svg="http://www.w3.org/2000/svg">
  <defs
     id="defs22048" />
  <g
     id="g22120">
    <path
       d="m 192.96738,143.79656 50.289,308.36 c 0.66797,4.0977 5.957,5.3359 8.375,1.9609 l 49.711,-69.422 c 1.9648,-2.7461 6.1094,-2.5469 7.8047,0.37109 l 71.242,122.6 c 1.2969,2.2344 4.168,2.9805 6.3906,1.668 l 27.652,-16.34 c 2.2266,-1.3164 2.9531,-4.1914 1.6211,-6.4062 l -74.262,-123.39 c -1.793,-2.9766 0.19531,-6.7969 3.6602,-7.0391 l 90.219,-6.3398 c 4.1602,-0.29297 5.8633,-5.4844 2.6875,-8.1875 l -237.79,-202.12 c -3.2969,-2.8008 -8.3008,0.0234 -7.6055,4.2969 z"
       id="path22050"
       style="fill:#2c4a5c;fill-opacity:1" />
    <path
       d="M 199.43738,323.56656 H 61.917377 c -20.555,0 -37.273,-16.719 -37.273,-37.273 V 62.663557 c 0,-20.555 16.719,-37.273 37.273,-37.273 H 310.39738 c 20.555,0 37.273,16.719 37.273,37.273 V 226.38356 l 24.848,21.125 -0.004,-184.840003 c 0,-34.262 -27.855,-62.12100056 -62.121,-62.12100056 H 61.913377 c -34.262,0 -62.12099958,27.85500056 -62.12099958,62.12100056 V 286.29856 c 0,34.262 27.85499958,62.121 62.12099958,62.121 l 141.570003,-0.004 z"
       id="path22052"
       style="fill:#2c4a5c;fill-opacity:1" />
  </g>
</svg>
