<?xml version="1.0" encoding="UTF-8" standalone="no"?>
<svg
   width="604.78802"
   height="736.76495"
   version="1.1"
   viewBox="0 0 453.59101 552.57371"
   id="svg381"
   xmlns:xlink="http://www.w3.org/1999/xlink"
   xmlns="http://www.w3.org/2000/svg"
   xmlns:svg="http://www.w3.org/2000/svg">
  <defs
     id="defs291">
    <symbol
       id="w"
       overflow="visible">
      <path
         d="M 0.03125,0 H 0.015625 0 V -0.015625 -0.03125 H 0.015625 0.03125 0.015625 V -0.015625 0 H 0.03125 v -0.015625 z"
         id="path222" />
    </symbol>
    <symbol
       id="e"
       overflow="visible">
      <path
         d="M 0.015625,-0.015625 V 0 H 0 v -0.03125 h 0.015625 v 0.015625 -0.015625 z"
         id="path225" />
    </symbol>
    <symbol
       id="b"
       overflow="visible">
      <path
         d="M 0.03125,-0.015625 H 0.015625 V 0 C 0.0234375,0 0.03125,-0.0039062 0.03125,-0.015625 V 0 H 0.015625 0 V -0.015625 L 0.015625,-0.03125 v 0.015625 z"
         id="path228" />
    </symbol>
    <symbol
       id="a"
       overflow="visible">
      <path
         d="M 0.015625,-0.015625 V 0 Z m 0.015625,0 V 0 H 0.015625 0 V -0.015625 H 0.015625 0 V -0.03125 h 0.015625 v 0.015625 z"
         id="path231" />
    </symbol>
    <symbol
       id="d"
       overflow="visible">
      <path
         d="M 0.015625,-0.03125 V -0.015625 0 H 0 V -0.015625 -0.03125 Z"
         id="path234" />
    </symbol>
    <symbol
       id="l"
       overflow="visible">
      <path
         d="M 0.015625,-0.015625 V -0.03125 H 0.03125 V 0 H 0.015625 0 V -0.015625 L 0.015625,-0.03125 Z m 0,0.015625 v -0.015625 z"
         id="path237" />
    </symbol>
    <symbol
       id="k"
       overflow="visible">
      <path
         d="m 0.015625,0 v -0.015625 z m 0,-0.015625 V -0.03125 c 0.0078125,0 0.015625,0.0078125 0.015625,0.015625 V 0 H 0.015625 0 v -0.03125 h 0.015625 z"
         id="path240" />
    </symbol>
    <symbol
       id="j"
       overflow="visible">
      <path
         d="M 0,-0.03125 H 0.015625 V -0.015625 -0.03125 H 0.03125 L 0.015625,0 V 0.015625 H 0 V 0 h 0.015625 z"
         id="path243" />
    </symbol>
    <symbol
       id="i"
       overflow="visible">
      <path
         d="M 0.015625,-0.03125 V -0.015625 0 H 0.03125 v -0.015625 c 0,-0.0078125 -0.0078125,-0.015625 -0.015625,-0.015625 z m 0,0 H 0.03125 V -0.015625 0 H 0.015625 0 V -0.015625 -0.03125 Z"
         id="path246" />
    </symbol>
    <symbol
       id="v"
       overflow="visible">
      <path
         d="M 0,-0.03125 H 0.015625 V 0 H 0 Z"
         id="path249" />
    </symbol>
    <symbol
       id="f"
       overflow="visible">
      <path
         d="M 0.03125,-0.015625 V 0 H 0.015625 V -0.015625 0 H 0 v -0.03125 h 0.015625 v 0.015625 -0.015625 c 0.0078125,0 0.015625,0.0078125 0.015625,0.015625 z"
         id="path252" />
    </symbol>
    <symbol
       id="h"
       overflow="visible">
      <path
         d="M 0,-0.03125 H 0.015625 0.03125 v 0.015625 H 0.015625 V 0 H 0 Z m 0.015625,0 v 0.015625 z"
         id="path255" />
    </symbol>
    <symbol
       id="g"
       overflow="visible">
      <path
         d="m 0.03125,-0.03125 v 0.015625 H 0.015625 C 0.0234375,-0.015625 0.03125,-0.0078125 0.03125,0 H 0.015625 0 0.015625 V -0.015625 H 0 L 0.015625,-0.03125 Z"
         id="path258" />
    </symbol>
    <symbol
       id="c"
       overflow="visible">
      <path
         d="M 0.015625,-0.015625 V 0 Z m 0,-0.015625 v 0.015625 H 0.03125 C 0.03125,-0.003906 0.0234375,0 0.015625,0 H 0 v -0.015625 z"
         id="path261" />
    </symbol>
    <symbol
       id="u"
       overflow="visible">
      <path
         d="M 0,-0.03125 H 0.015625 V -0.015625 -0.03125 H 0.03125 L 0.015625,0 Z"
         id="path264" />
    </symbol>
    <symbol
       id="t"
       overflow="visible">
      <path
         d="M 0,-0.03125 H 0.015625 V -0.015625 -0.03125 H 0.03125 L 0.015625,-0.015625 0.03125,0 H 0.015625 V -0.015625 0 H 0 Z"
         id="path267" />
    </symbol>
    <symbol
       id="s"
       overflow="visible">
      <path
         d="M 0.015625,-0.03125 V 0 H 0 v -0.03125 z"
         id="path270" />
    </symbol>
    <symbol
       id="r"
       overflow="visible">
      <path
         d="M 0.03125,-0.015625 V -0.03125 c 0.0078125,0 0.015625,0.0078125 0.015625,0.015625 V 0 H 0.03125 V -0.015625 0 H 0.015625 V -0.015625 0 H 0 v -0.03125 h 0.015625 v 0.015625 -0.015625 0.015625 z"
         id="path273" />
    </symbol>
    <symbol
       id="q"
       overflow="visible">
      <path
         d="M 0.03125,-0.015625 V 0 H 0.015625 V -0.015625 0 H 0 v -0.03125 h 0.015625 v 0.015625 -0.015625 c 0.0078125,0 0.015625,0.0078125 0.015625,0.015625 z"
         id="path276" />
    </symbol>
    <symbol
       id="p"
       overflow="visible">
      <path
         d="M 0,-0.03125 H 0.015625 L 0.03125,-0.015625 V -0.03125 0 L 0.015625,-0.015625 V 0 H 0 Z"
         id="path279" />
    </symbol>
    <symbol
       id="o"
       overflow="visible">
      <path
         d="M 0,-0.015625 V -0.03125 H 0.015625 V -0.015625 0 -0.015625 -0.03125 H 0.03125 V 0 H 0.015625 0 Z"
         id="path282" />
    </symbol>
    <symbol
       id="n"
       overflow="visible">
      <path
         d="M 0,-0.03125 H 0.015625 V 0 H 0 v 0.015625 z m 0,0 h 0.015625 z"
         id="path285" />
    </symbol>
    <symbol
       id="m"
       overflow="visible">
      <path
         d="m 0.03125,-0.03125 v 0.015625 H 0.015625 V 0 H 0.03125 0.015625 0 V -0.015625 L 0.015625,-0.03125 Z"
         id="path288" />
    </symbol>
  </defs>
  <g
     id="g379"
     transform="translate(-123.15728,-4.9295776)"
     style="fill:#f9faf8;fill-opacity:1">
    <path
       d="m 416.16,249.47 c -0.12109,-1.9609 1.3633,-3.6484 3.3242,-3.7695 1.9609,-0.12109 3.6484,1.3633 3.7695,3.3242 0.14062,2.1562 0.39062,5.1055 0.67188,8.3906 0.74609,8.8125 1.707,20.02 1.625,31.734 12.711,-27.906 3.5859,-47.301 -6.0859,-67.797 -1.1094,-2.3516 -2.2227,-4.7148 -3.3125,-7.1133 -0.0664,-0.12109 -0.12109,-0.25391 -0.17578,-0.39062 -4.4609,-9.8008 -8.5195,-20.086 -10.23,-31.844 -0.91406,2.5938 -1.8125,6.2344 -2.7812,10.23 -2.8555,11.723 -6.2891,25.789 -17.23,31.461 -1.457,0.8125 -3.3398,0.49609 -4.4414,-0.83203 -3.2461,-3.9023 -5.7578,-8.4844 -8.2617,-13.074 -4.4531,-8.1484 -8.9023,-16.305 -16.988,-18.359 -1.3242,-0.28906 -2.4258,-1.3242 -2.7344,-2.7344 -1,-4.6836 -0.44922,-10.164 0.10156,-15.652 0.88672,-8.8008 1.7734,-17.602 -5.3008,-19.012 v -0.008 c -0.0469,-0.008 -0.0937,-0.0195 -0.14062,-0.0273 -0.45703,-0.11328 -0.90625,-0.22266 -1.3516,-0.33594 -6.8711,-0.8125 -12.402,-0.0937 -16.809,1.7266 7.4297,7.2891 8.8008,14.895 10.07,21.934 0.16797,0.93359 0.33594,1.8555 0.53125,2.8359 0.79297,0.17578 1.5859,0.41016 2.3711,0.69922 3.1445,1.1484 6.168,3.1562 8.7266,6.0938 2.5117,2.8828 4.582,6.6719 5.8711,11.441 2.0547,7.5586 2.1484,17.648 -1.0938,30.574 0.16016,0.16797 0.28906,0.35547 0.39062,0.57812 6.0859,12.938 9.5391,28.484 9.1562,43.41 -0.34375,13.543 -3.8438,26.59 -11.387,36.801 -0.72656,0.98047 -2.1172,1.1953 -3.0977,0.45703 -0.46484,-0.34375 -0.76562,-0.84766 -0.85938,-1.3828 v -0.0195 l -3.4453,-18.824 c -3.7812,10.023 -8.1836,19.18 -12.898,27.328 -8.5039,14.719 -18.043,26.219 -26.758,33.77 -0.92578,0.80078 -2.3242,0.69922 -3.125,-0.22266 -0.52344,-0.60547 -0.66406,-1.418 -0.42969,-2.1367 1.7461,-5.3555 3.6406,-10.77 5.5352,-16.191 4.8906,-13.973 9.7812,-27.945 12.797,-43.445 -4.0898,5.2812 -8.5039,9.0703 -12.469,10.77 -0.0859,0.0391 -0.17578,0.0742 -0.26953,0.10156 h -0.0195 l -0.0391,0.008 -0.0274,0.008 h -0.008 l -0.0469,0.008 h -0.008 c -0.12109,0.0273 -0.24219,0.0469 -0.36328,0.0547 h -0.16016 c -0.38281,0 -0.76562,-0.10156 -1.1094,-0.30859 -0.0469,-0.0274 -0.0859,-0.0547 -0.12891,-0.0859 l -0.008,-0.008 -0.0391,-0.0274 -0.008,-0.008 -0.0781,-0.0547 c -0.35547,-0.28125 -0.60547,-0.66406 -0.72656,-1.082 v -0.0195 l -0.008,-0.0391 -0.008,-0.0273 -0.008,-0.0195 -0.008,-0.0469 v -0.008 c -0.0273,-0.12109 -0.0469,-0.24219 -0.0547,-0.36328 v -0.16016 c 0,-0.38281 0.10156,-0.76562 0.30859,-1.1094 5.543,-9.4844 10.23,-19.832 12.75,-31.379 2.1914,-10.062 2.7344,-21.055 0.76562,-33.219 -2.8086,4.6016 -5.6836,10.586 -8.168,19.227 -0.33594,1.1836 -1.5664,1.8672 -2.7422,1.5312 -1.1836,-0.33594 -1.8672,-1.5664 -1.5312,-2.7422 1.9961,-6.9531 2.8672,-15.969 3.7344,-25.105 0.39062,-4.043 0.77344,-8.1094 1.2695,-12.059 -1.0156,-0.26953 -1.9023,-0.98047 -2.3516,-2.0156 -3.1445,-7.1602 -5.207,-19.387 -3.7891,-31.145 0.75781,-6.2617 2.5,-12.469 5.5898,-17.828 3.1914,-5.5234 7.7656,-10.098 14.121,-12.891 1.0625,-0.46484 2.1836,-0.88672 3.3398,-1.2422 -12.656,-5.8516 -20.328,-13.402 -27.992,-20.953 -5.0117,-4.9297 -10.016,-9.8672 -16.453,-14.188 -6.4414,-2.3242 -10.965,-0.29688 -13.879,3.332 -1.9609,2.4453 -3.3047,5.6016 -4.0703,8.7344 -0.76562,3.1562 -0.95312,6.2344 -0.59766,8.5586 0.0195,0.12891 0.0273,0.25391 0.0273,0.36328 11.555,-10.379 17.891,-12.254 21.309,-8.6445 3.7695,3.9961 1.4453,14.316 -1.3516,26.691 -3.1641,14 -6.9922,30.957 -3.3516,40.254 2.9883,7.6328 1.9805,9.332 -1.1758,14.672 -0.46484,0.79297 -1,1.6875 -1.5664,2.7148 -2.6211,4.75 -5.543,8.8008 -8.7812,12.664 -2.8555,3.3984 -5.9844,6.6719 -9.3906,10.156 0.19531,0.375 0.38281,0.74609 0.57031,1.1289 0.69922,1.4375 1.2617,2.7344 1.8125,4.0234 1.5391,3.6133 3.0781,7.2227 5.4688,8.6992 1.6719,1.0273 2.1836,3.2109 1.1562,4.8828 -1.0274,1.6719 -3.2109,2.1836 -4.8828,1.1562 -2.5859,-1.5977 -4.3398,-3.9023 -5.75,-6.5039 0.40234,2.5938 0.23438,4.5547 -0.34375,6.0391 0.34375,0.47656 0.57812,1.0469 0.65234,1.6797 0.96094,7.9336 -0.36328,12.871 -2.9883,15.961 l 2.5117,126.93 c 0.93359,-1.2227 1.8398,-2.4844 2.707,-3.7891 2.2578,-3.3984 4.2852,-7.0469 6,-10.984 0.78516,-1.8008 2.875,-2.6211 4.6758,-1.8398 1.8008,0.78516 2.6211,2.875 1.8398,4.6758 -1.8945,4.3477 -4.1172,8.3633 -6.5781,12.078 -2.4844,3.7227 -5.2188,7.1484 -8.1484,10.293 -0.0859,0.0937 -0.17578,0.17578 -0.26953,0.26172 l 2.2305,112.73 c 14.633,7.3086 26.328,-1.6797 37.129,-9.9688 5.6484,-4.3398 11.07,-8.5039 16.91,-10.641 0.14062,-0.0547 0.28906,-0.0937 0.44922,-0.12891 14,-3.1172 26.535,0.12109 39.07,3.3594 5.75,1.4844 11.5,2.9688 17.258,3.7695 33.32,-7.2422 41.906,-11.051 41.047,-15 -0.4375,-2.0156 -3.0156,-4.8711 -6.1211,-8.3164 -2.4453,-2.707 -5.1719,-5.7227 -7.5898,-9.1016 -13.711,-19.125 -14.645,-62 -15.68,-109.79 -0.94141,-43.215 -1.9688,-90.496 -12.523,-126.65 -0.54297,-1.8867 0.54297,-3.8438 2.418,-4.3945 1.8867,-0.54297 3.8438,0.54297 4.3945,2.418 9.5312,32.629 11.469,73.602 12.449,112.75 16.27,-6.6172 22.812,-23.652 25.031,-42.234 -0.20703,-0.80078 -0.12891,-1.6797 0.26953,-2.4648 1.5977,-16.117 0.14844,-33.098 -0.88672,-45.23 -0.26172,-3.0625 -0.49609,-5.8164 -0.67188,-8.5312 z m 41.523,-84.465 c -1.2305,0 -2.2227,-1 -2.2227,-2.2227 0,-1.2305 1,-2.2227 2.2227,-2.2227 h 10.613 v -10.613 c 0,-1.2305 1,-2.2227 2.2227,-2.2227 1.2305,0 2.2227,1 2.2227,2.2227 v 10.613 h 10.613 c 1.2305,0 2.2227,1 2.2227,2.2227 0,1.2305 -1,2.2227 -2.2227,2.2227 h -10.613 v 10.613 c 0,1.2305 -1,2.2227 -2.2227,2.2227 -1.2305,0 -2.2227,-1 -2.2227,-2.2227 V 165.005 Z M 386.925,55.625 c -1.2305,0 -2.2227,-1 -2.2227,-2.2227 0,-1.2305 1,-2.2227 2.2227,-2.2227 h 13.551 v -13.551 c 0,-1.2305 1,-2.2227 2.2227,-2.2227 1.2305,0 2.2227,1 2.2227,2.2227 v 13.551 h 13.551 c 1.2305,0 2.2227,1 2.2227,2.2227 0,1.2305 -1,2.2227 -2.2227,2.2227 h -13.551 v 13.551 c 0,1.2305 -1,2.2227 -2.2227,2.2227 -1.2305,0 -2.2227,-1 -2.2227,-2.2227 V 55.625 Z m 117.27,8.2422 4.5078,15.344 13.449,5.0859 c 1.1484,0.42969 1.7266,1.707 1.2969,2.8555 -0.23438,0.625 -0.71875,1.0742 -1.2969,1.2969 l -13.449,5.0859 -4.5156,15.371 c -0.34375,1.1758 -1.5781,1.8477 -2.7539,1.5039 -0.75781,-0.22266 -1.3086,-0.82031 -1.5117,-1.5195 l -4.5078,-15.344 -13.449,-5.0859 c -1.1484,-0.42969 -1.7266,-1.707 -1.2969,-2.8555 0.23438,-0.625 0.71875,-1.0742 1.2969,-1.2969 l 13.449,-5.0859 4.5156,-15.371 c 0.34375,-1.1758 1.5781,-1.8477 2.7539,-1.5039 0.75781,0.22266 1.3086,0.82031 1.5117,1.5195 z m 0.55859,17.66 -2.6992,-9.1836 -2.6875,9.1484 c -0.1875,0.66406 -0.67188,1.2227 -1.3516,1.4844 l -8.9883,3.3984 8.9883,3.3984 c 0.625,0.23437 1.1367,0.75781 1.3438,1.457 l 2.6992,9.1836 2.6875,-9.1484 c 0.1875,-0.66406 0.67188,-1.2227 1.3516,-1.4844 l 8.9883,-3.3984 -8.9883,-3.3984 c -0.625,-0.23438 -1.1367,-0.75781 -1.3438,-1.457 z m -39.883,-72.277 4.3398,14.988 12.918,4.957 c 1.1367,0.4375 1.7188,1.7188 1.2773,2.8555 -0.23438,0.61719 -0.71094,1.0625 -1.2773,1.2773 l -12.918,4.957 -4.3477,15.016 c -0.34375,1.1758 -1.5664,1.8555 -2.7422,1.5117 -0.76562,-0.22266 -1.3164,-0.82031 -1.5195,-1.5312 l -4.3398,-14.988 -12.918,-4.957 c -1.1367,-0.4375 -1.7188,-1.7188 -1.2773,-2.8555 0.23438,-0.61719 0.71094,-1.0625 1.2773,-1.2773 l 12.918,-4.957 4.3477,-15.016 c 0.34375,-1.1758 1.5664,-1.8555 2.7422,-1.5117 0.76563,0.22266 1.3164,0.82031 1.5195,1.5312 z m 0.38281,17.285 -2.5195,-8.707 -2.5195,8.707 c -0.1875,0.64453 -0.66406,1.1953 -1.3359,1.457 l -8.5664,3.2852 8.4766,3.2461 c 0.67188,0.22266 1.2227,0.75781 1.4297,1.4844 l 2.5195,8.707 2.5195,-8.707 c 0.1875,-0.64453 0.66406,-1.1953 1.3359,-1.457 l 8.5664,-3.2852 -8.4766,-3.2461 c -0.67188,-0.22266 -1.2227,-0.75781 -1.4297,-1.4844 z m -144.72,143.43 c -0.71875,-0.98828 -0.50391,-2.3711 0.48438,-3.0898 0.98829,-0.7187 2.3711,-0.50391 3.0977,0.48438 l 6.7109,9.1914 c 0.0937,0.12891 0.17578,0.26953 0.24219,0.42188 0.50391,1.1484 0.60547,2.2969 0.40234,3.3711 0.0391,-0.008 0.0742,-0.0273 0.12109,-0.0391 1.3516,-0.36328 2.7617,-0.57031 4.2109,-0.60547 -0.0937,-0.52344 -0.19531,-1.0547 -0.28906,-1.5977 -1.1953,-6.6172 -2.4922,-13.812 -9.8281,-20.488 -3.0234,2.0625 -5.375,4.7773 -7.168,7.8945 -2.5586,4.4336 -4.0234,9.7148 -4.6758,15.129 -0.87891,7.2812 -0.29688,14.672 1.0469,20.598 1.4648,-6.4219 3.6133,-11.938 7.0273,-15.68 -0.98047,-0.40234 -1.5586,-1.457 -1.3242,-2.5312 0.26172,-1.1953 1.4453,-1.9492 2.6406,-1.6875 0.8125,0.17578 1.6445,0.0664 2.3516,-0.24219 0.42969,-0.1875 0.80078,-0.44922 1.082,-0.74609 0.23438,-0.24219 0.38281,-0.51172 0.44922,-0.77344 0.0469,-0.19531 0.0391,-0.42187 -0.0391,-0.65234 l -6.5352,-8.9492 z m -66.184,85.996 c -1.5781,0.26953 -3.2656,0.28125 -4.9102,0.28906 -1.0742,0.008 -2.1289,0.0195 -3.0703,0.10156 -1.2227,0.11328 -2.3047,-0.78516 -2.418,-1.9961 -0.11328,-1.2227 0.78516,-2.3047 1.9961,-2.418 1.1016,-0.10156 2.2773,-0.11328 3.4727,-0.12109 1.6875,-0.008 3.4258,-0.0195 4.7773,-0.35547 1.9141,-0.46484 3.1172,-2.0234 2.0156,-6.793 -1.0938,0.35547 -2.2969,0.58984 -3.5664,0.75781 -0.82031,0.11328 -1.6875,0.1875 -2.5664,0.26953 -1.5117,0.14062 -3.0625,0.28125 -4.4062,0.60547 -1.1953,0.28906 -2.3906,-0.44922 -2.6797,-1.6328 -0.28906,-1.1953 0.44922,-2.3906 1.6328,-2.6797 1.6445,-0.40234 3.3594,-0.55859 5.0508,-0.71875 0.80078,-0.0742 1.6055,-0.14844 2.3906,-0.25391 2.6211,-0.34375 4.7617,-1.1367 4.7422,-4.4141 l -0.0742,-0.16016 c -2.2383,-4.5742 -5.4961,-7.8477 -14.914,-3.3711 -4.1641,3.6289 -6.2422,7.8672 -6.9141,12.098 -0.625,3.9023 -0.0742,7.8398 1.1367,11.301 1.2031,3.4336 3.0352,6.3477 4.9922,8.2617 0.90625,0.88672 1.7656,1.5117 2.4922,1.8008 3.2656,0.20703 6.5703,0.23438 8.4922,-1.1367 1.7266,-1.2305 2.7422,-3.9648 2.3164,-9.4531 z m -5.8789,17.723 6.2812,271.59 h 1.8672 l -5.3867,-271.97 c -0.90625,0.19531 -1.8203,0.31641 -2.7539,0.38281 z m 1.7734,-50.223 c -0.95313,-48.031 -1.9219,-96.059 -2.8555,-144.08 -0.0937,-4.9453 -0.12891,-7.0469 -2.1914,-11.891 -2.5664,-6.0391 -5.4414,-7.5117 -8.25,-6.6367 -3.7891,1.1953 -8.0273,5.4961 -11.762,10.016 -4.5742,5.5352 -4.5273,5.6094 -2.7148,8.9688 0.4375,0.8125 0.95312,1.7656 1.7266,3.3047 5.8906,11.762 7.4492,26.199 8.9023,39.777 1.3906,12.938 2.6992,25.043 7.543,32.059 5.3203,7.7109 5.3945,11.434 5.5898,21.223 0.0195,0.72656 0.0273,1.4922 0.0469,2.3047 l 1.0469,45.238 c 1.0352,-0.1875 2.0156,-0.28125 2.9219,-0.28906 z m 7.1406,2.1914 c 0.31641,0.23437 0.625,0.48437 0.92578,0.75781 2.9492,-3.0234 5.6641,-5.9062 8.1836,-8.9023 2.9766,-3.5469 5.6367,-7.2344 8.0078,-11.516 0.625,-1.1289 1.1836,-2.082 1.6797,-2.9102 1.8203,-3.0703 2.3984,-4.0586 0.67187,-8.4648 -4.4258,-11.301 -0.33594,-29.438 3.043,-44.398 2.3438,-10.359 4.293,-19.012 3.1094,-20.273 -0.55859,-0.58984 -4.4336,2.4258 -13.961,11.434 -0.78516,0.73828 -1.8125,1.0469 -2.8008,0.94141 -3.5742,-0.25391 -5.7578,-3.3789 -6.4414,-7.9414 -0.46484,-3.1367 -0.25391,-7.1953 0.73828,-11.258 0.98828,-4.0703 2.7734,-8.2031 5.4336,-11.516 4.7773,-5.9648 12.105,-9.2969 22.344,-5.3555 0.25391,0.0937 0.47656,0.21484 0.69141,0.35547 v -0.008 c 7.1406,4.7422 12.48,9.9961 17.809,15.25 9.8008,9.6523 19.609,19.301 40.984,24.816 0.17578,0.0273 0.34375,0.0742 0.51172,0.12891 0.38281,0.0937 0.76562,0.19531 1.1562,0.28906 v -0.008 c 13.43,2.6602 12.219,14.672 11.004,26.684 -0.41016,4.0703 -0.82031,8.12889 -0.51172,11.469 9.5938,3.4453 14.449,12.312 19.293,21.18799 1.793,3.2852 3.5859,6.5703 5.5898,9.4375 6.3281,-5.1797 8.9805,-16.043 11.219,-25.266 2.5195,-10.312 4.6289,-18.965 11.621,-19.543 0.73828,-12.145 2.668,-23.613 9.4258,-29.137 1.0938,-0.88672 1.5664,-1.69919 1.5859,-2.332 0.008,-0.23437 -0.0664,-0.46484 -0.19531,-0.67187 -0.17578,-0.26953 -0.45703,-0.51172 -0.83203,-0.71094 -1.1016,-0.57031 -2.7539,-0.63281 -4.7305,0.12891 -1.8281,0.71094 -3.8828,-0.20703 -4.5938,-2.0352 -0.711,-1.82817 0.20703,-3.8828 2.0352,-4.5938 1.1094,-0.42969 2.1914,-0.71875 3.2383,-0.8789 -0.0937,-0.0664 -0.1875,-0.12891 -0.28125,-0.19532 -1.3359,-0.86718 -2.9414,-1.2305 -4.4609,-1.4375 -0.76562,-0.0664 -1.5117,-0.375 -2.1094,-0.9414 -0.83984,-0.78516 -1.5859,-1.7266 -2.0703,-2.7734 -0.48437,-1.0469 -0.71875,-2.1836 -0.57812,-3.3789 0.14062,-1.2227 0.66406,-2.4062 1.6602,-3.4805 0.72656,-0.77344 1.707,-1.4844 3.0156,-2.0898 0.77344,-0.36328 1.6875,-0.4375 2.5664,-0.16016 1.8281,0.58984 3.7539,0.83203 5.543,1.0547 5.8789,0.72656 10.676,1.3242 13.953,9.9492 0.69141,1.83979 -0.23438,3.8828 -2.0703,4.57419 -1.8398,0.69141 -3.8828,-0.23437 -4.5742,-2.0703 -1.5586,-4.0977 -4.0234,-4.8242 -7.0547,-5.24609 l 0.0742,0.0469 c 2.5664,1.6797 4.7969,4.3398 6.1328,8.7188 0.0391,0.12109 0.0664,0.24219 0.0937,0.36328 0.39062,0.41016 0.73828,0.83984 1.0352,1.3086 0.88672,1.3828 1.3516,2.9766 1.3086,4.6758 -0.0664,2.6133 -1.3359,5.3477 -4.1719,7.6719 -6.4492,5.2734 -6.8984,21.309 -7.2969,35.672 -0.0469,1.7656 -0.0937,3.5 -0.14844,5.0859 0.41016,1.7188 0.87891,3.4062 1.3828,5.0664 1.3359,-16.941 6.7305,-27.562 12.113,-38.172 2.9023,-5.7227 5.8047,-11.434 7.9609,-18.098 l 0.14062,-0.4375 c 0.0742,-0.21484 0.12891,-0.41016 0.19531,-0.59766 0.0273,-0.11328 0.0664,-0.22266 0.10156,-0.32812 0.46484,-1.5195 0.40234,-1.9141 -0.16016,-4.1797 -3.8281,-15.699 -10.23,-15.504 -16.633,-15.297 -4.7695,0.14844 -9.5312,0.29688 -14.176,-3.0898 -1.5859,-1.1484 -1.9336,-3.3711 -0.77344,-4.9453 1.1484,-1.5859 3.3711,-1.9336 4.9453,-0.77344 2.6797,1.9492 6.2344,1.8398 9.7812,1.7266 6.2539,-0.19531 12.508,-0.39062 17.508,6.0195 0.16797,-2.5664 -0.0195,-5.6836 -0.21484,-8.8008 -0.16016,-2.5469 -0.31641,-5.1055 -0.28125,-7.4648 -0.86719,-4.5273 -1.1836,-8.4102 0.12109,-11.359 0.79297,-1.8008 2.8945,-2.6133 4.6836,-1.8203 1.8008,0.79297 2.6133,2.8945 1.8203,4.6836 -0.89453,2.0352 0.26172,7.0547 1.6133,12.938 2.5664,11.125 5.7305,24.836 -1.707,35.254 l -0.0742,0.21484 -0.14062,0.4375 c -2.332,7.2344 -5.3555,13.18 -8.3711,19.125 -6.7109,13.207 -13.41,26.422 -11.219,53.441 1.0273,2.2305 2.0625,4.4414 3.0977,6.6445 11.918,25.285 23.09,49 -1.2422,87.203 -2.418,21.895 -10.398,42.551 -31.883,49.859 -0.0547,0.0195 -0.12109,0.0391 -0.17578,0.0547 0.0664,2.7539 0.12109,5.5078 0.17578,8.2305 1.0156,46.594 1.9219,88.414 14.375,105.79 2.3242,3.2461 4.8242,6.0117 7.0664,8.4922 3.8281,4.2383 6.9922,7.7461 7.8203,11.562 1.8867,8.6992 -7.793,15.074 -47.078,23.586 -0.50391,0.11328 -1,0.10156 -1.4766,0.008 -6.3203,-0.84766 -12.402,-2.418 -18.48,-3.9961 -11.629,-3.0039 -23.258,-6.0117 -35.504,-3.3594 -4.7305,1.7812 -9.6875,5.5898 -14.832,9.5469 -11.742,9.0156 -24.398,18.742 -41.289,12.18 l 0.42188,21.289 c 0.0391,1.9609 -1.5195,3.5742 -3.4727,3.6133 h -0.0664 v 0.008 h -8.9492 c -1.9688,0 -3.5547,-1.5977 -3.5547,-3.5547 0,-0.0742 0,-0.14844 0.008,-0.22266 l -0.71094,-30.734 c -0.39062,-0.14844 -0.76562,-0.375 -1.1016,-0.67188 -3.6016,-3.2461 -5.6836,-6.4219 -8.4844,-10.707 -1.0625,-1.6328 -2.2383,-3.4258 -3.3594,-5.0508 -0.40234,-0.58984 -0.95312,-1 -1.5781,-1.2695 -0.80078,-0.33594 -1.7734,-0.45703 -2.8086,-0.38281 -32.414,2.1758 -38.734,-1.2617 -39.312,-9.7812 -0.12891,-1.9219 0.14844,-3.9297 0.45703,-6.1875 0.98047,-7.1484 2.3984,-17.473 -12.312,-30.484 -0.52344,-0.46484 -0.94141,-1.0273 -1.25,-1.6602 -0.625,-1.2773 -0.95312,-3.2031 -0.83203,-5.0391 0.12109,-1.9414 0.73828,-3.9766 2.0078,-5.4141 0.53125,-0.59766 1.1484,-1.082 1.8477,-1.4297 2.707,-1.3164 7.1133,-2.6602 12.656,-4.3477 l 1.0078,-0.30859 c -4.7227,-7.0273 -9.2578,-15.297 -10.613,-23.668 -1.6992,-10.508 1.4453,-20.84 14.793,-28.691 0.42969,-0.25391 0.89453,-0.40234 1.3633,-0.45703 v -0.008 c 7.2148,-0.89453 14.316,0.58984 21.43,2.0703 7.8945,1.6523 15.793,3.3047 23.016,1.1562 l -0.29687,-12.785 c -2.6992,-2.1172 -5.1523,-4.3789 -7.3906,-6.7461 -15.363,-16.277 -21.086,-38.473 -21.281,-58.707 -0.19531,-20.254 5.2188,-38.754 12.039,-47.469 0.63281,-0.8125 1.2773,-1.5391 1.9336,-2.1914 -1.2891,-4.1797 -1.8008,-8.8555 -1.0547,-13.562 1.0547,-6.5977 4.5547,-13.16 11.844,-18.359 0.16797,-0.12109 0.33594,-0.21484 0.51172,-0.30859 l -1.082,-46.75 c -0.0195,-0.80078 -0.0391,-1.5781 -0.0469,-2.3047 -0.16797,-8.2305 -0.23438,-11.367 -4.3398,-17.332 -5.8789,-8.5117 -7.2695,-21.484 -8.7656,-35.344 -1.3984,-12.973 -2.8828,-26.77 -8.1836,-37.352 -0.48438,-0.96875 -1.1094,-2.1172 -1.6445,-3.1094 -4.0234,-7.4766 -4.1172,-7.6523 3.5,-16.867 4.4414,-5.375 9.707,-10.566 15.129,-12.273 6.4023,-2.0156 12.449,0.19531 16.895,10.641 2.5938,6.0859 2.6406,8.6133 2.7539,14.559 l 2.9023,146.38 z m -25.219,39.145 c -5.7695,7.8945 -10.258,24.246 -10.078,42.43 0.1875,18.684 5.3867,39.09 19.367,53.891 0.65234,0.69141 1.3164,1.3633 1.9961,2.0234 l -2.082,-89.863 c -1.8125,-0.64453 -3.6133,-1.8281 -5.2734,-3.4453 -1.3984,-1.3711 -2.7539,-3.0781 -3.9375,-5.0391 z m 14.625,242.79 -2.0078,-86.977 c -17.324,11.723 -36.746,17.641 -49.758,21.605 -4.9648,1.5117 -8.9492,2.7266 -11.32,3.8359 -0.0742,0.21484 -0.12891,0.58984 -0.16016,1.0273 -0.0391,0.52344 -0.008,0.98828 0.0664,1.2891 17.145,15.383 15.445,27.785 14.262,36.398 -0.26172,1.875 -0.48438,3.5273 -0.40234,4.7695 0.24219,3.6289 5.3008,4.9375 31.742,3.1562 2.0898,-0.14062 4.1641,0.14844 6.0391,0.94141 1.8398,0.77344 3.4531,2.0156 4.668,3.7695 1.4922,2.1562 2.5312,3.7422 3.4727,5.1875 1.2227,1.8672 2.2852,3.5 3.3984,4.9844 z m -2.2109,-95.555 -0.44922,-19.188 c -8.2617,1.9023 -16.445,0.19531 -24.641,-1.5195 -6.2617,-1.3086 -12.523,-2.6133 -18.414,-2.043 -9.6406,5.9375 -11.945,13.469 -10.715,21.066 1.25,7.7461 6.0117,15.82 10.707,22.566 12.926,-4.1523 29.352,-10.312 43.504,-20.879 z m 195.25,-291.34 c 0.0742,0.16797 0.14844,0.34375 0.22266,0.52344 -0.008,-0.32813 -0.0273,-0.65234 -0.0391,-0.98047 -0.0547,0.16016 -0.12109,0.30859 -0.1875,0.46484 z m -104.56,276.89 c 0.17578,-1.2148 1.3086,-2.0547 2.5195,-1.875 1.2148,0.17578 2.0547,1.3086 1.875,2.5195 -6.4883,44.258 -31.621,60.93 -56.664,77.543 -4.5742,3.0352 -9.1484,6.0664 -13.469,9.1758 -0.98828,0.71875 -2.3789,0.48438 -3.0977,-0.50391 -0.7188,-0.98829 -0.48438,-2.3789 0.50391,-3.0977 4.5352,-3.2656 9.0703,-6.2734 13.609,-9.2773 24.219,-16.062 48.516,-32.18 54.723,-74.48 z m -24.379,-56.039 c 6.4961,-6.8516 13.207,-15.766 19.387,-26.461 7.0859,-12.254 13.457,-26.824 17.996,-43.277 0.32812,-1.1836 1.5508,-1.875 2.7266,-1.5508 1.1836,0.32812 1.875,1.5508 1.5508,2.7266 -0.80078,2.9023 -1.6602,5.7578 -2.5664,8.5508 l 3.8438,21.02 c 4.9297,-8.6328 7.2812,-18.984 7.5586,-29.707 0.32812,-12.703 -2.2695,-25.898 -6.9609,-37.371 -0.57812,1.8398 -1.2148,3.7148 -1.9219,5.6562 -0.42188,1.1484 -1.6875,1.7461 -2.8477,1.3242 -1.1484,-0.42188 -1.7461,-1.6875 -1.3242,-2.8477 6.543,-17.957 7.1875,-31.062 4.7422,-40.066 -1.1016,-4.0781 -2.8359,-7.2812 -4.9297,-9.6797 -2.043,-2.3516 -4.4336,-3.9492 -6.8867,-4.8438 -2.8672,-1.0469 -5.8438,-1.1484 -8.5039,-0.42969 -0.23438,0.0664 -0.46484,0.0859 -0.69141,0.0742 -0.26172,0.20703 -0.57031,0.35547 -0.91406,0.42188 -11.461,2.3789 -13.301,21.617 -15.102,40.34 -0.19531,2.0898 -0.40234,4.1719 -0.61719,6.2266 1.418,-2.4922 2.8359,-4.6211 4.2109,-6.5352 0.0391,-0.0547 0.0742,-0.10156 0.11328,-0.14844 0.93359,-1.2969 1.8398,-2.4844 2.707,-3.6289 4.9766,-6.5352 8.5117,-11.18 7.0195,-24.527 -0.12891,-1.2227 0.74609,-2.3164 1.9609,-2.4531 1.2227,-0.12891 2.3164,0.74609 2.4531,1.9609 1.6797,15.102 -2.3047,20.336 -7.9062,27.711 -0.67969,0.89453 -1.3906,1.8203 -2.1094,2.8086 3.0234,14.57 2.6055,27.59 0.0391,39.414 -1.8672,8.5586 -4.8633,16.484 -8.5195,23.883 2.9688,-3.0977 5.9258,-7.207 8.5391,-12.051 4.2383,-7.8477 7.4766,-17.566 8.25,-28 0.0859,-1.2227 1.1484,-2.1484 2.3711,-2.0625 1.2227,0.0859 2.1484,1.1484 2.0625,2.3711 -0.80078,10.855 -4.1055,20.961 -8.457,29.203 -2.6523,20.113 -8.6445,37.23 -14.633,54.348 -0.87891,2.5117 -1.7539,5.0195 -2.6328,7.5586 z m 32.32,-134.4 c -0.69922,-1 -0.45703,-2.3789 0.55078,-3.0898 1,-0.69922 2.3789,-0.45703 3.0898,0.55078 5.0977,7.3086 4.0312,14.504 2.9961,21.477 -0.16016,1.082 -0.31641,2.1484 -0.40234,2.8203 -0.16016,1.2148 -1.2695,2.0703 -2.4844,1.9141 -1.2148,-0.16016 -2.0703,-1.2695 -1.9141,-2.4844 0.16016,-1.2227 0.28125,-2.0547 0.40234,-2.8828 0.90625,-6.1211 1.8477,-12.449 -2.2305,-18.293 z"
       id="path293"
       style="fill:#f9faf8;fill-opacity:1" />
    <use
       x="70"
       y="560.14062"
       xlink:href="#w"
       id="use295"
       style="fill:#f9faf8;fill-opacity:1" />
    <use
       x="70.035156"
       y="560.14062"
       xlink:href="#e"
       id="use297"
       style="fill:#f9faf8;fill-opacity:1" />
    <use
       x="70.058594"
       y="560.14062"
       xlink:href="#b"
       id="use299"
       style="fill:#f9faf8;fill-opacity:1" />
    <use
       x="70.089844"
       y="560.14062"
       xlink:href="#a"
       id="use301"
       style="fill:#f9faf8;fill-opacity:1" />
    <use
       x="70.121094"
       y="560.14062"
       xlink:href="#d"
       id="use303"
       style="fill:#f9faf8;fill-opacity:1" />
    <use
       x="70.144531"
       y="560.14062"
       xlink:href="#b"
       id="use305"
       style="fill:#f9faf8;fill-opacity:1" />
    <use
       x="70.175781"
       y="560.14062"
       xlink:href="#l"
       id="use307"
       style="fill:#f9faf8;fill-opacity:1" />
    <use
       x="70.222656"
       y="560.14062"
       xlink:href="#k"
       id="use309"
       style="fill:#f9faf8;fill-opacity:1" />
    <use
       x="70.257812"
       y="560.14062"
       xlink:href="#j"
       id="use311"
       style="fill:#f9faf8;fill-opacity:1" />
    <use
       x="70.304688"
       y="560.14062"
       xlink:href="#i"
       id="use313"
       style="fill:#f9faf8;fill-opacity:1" />
    <use
       x="70.34375"
       y="560.14062"
       xlink:href="#v"
       id="use315"
       style="fill:#f9faf8;fill-opacity:1" />
    <use
       x="70.359375"
       y="560.14062"
       xlink:href="#b"
       id="use317"
       style="fill:#f9faf8;fill-opacity:1" />
    <use
       x="70.390625"
       y="560.14062"
       xlink:href="#f"
       id="use319"
       style="fill:#f9faf8;fill-opacity:1" />
    <use
       x="70.425781"
       y="560.14062"
       xlink:href="#a"
       id="use321"
       style="fill:#f9faf8;fill-opacity:1" />
    <use
       x="70.472656"
       y="560.14062"
       xlink:href="#h"
       id="use323"
       style="fill:#f9faf8;fill-opacity:1" />
    <use
       x="70.507812"
       y="560.14062"
       xlink:href="#a"
       id="use325"
       style="fill:#f9faf8;fill-opacity:1" />
    <use
       x="70.539062"
       y="560.14062"
       xlink:href="#f"
       id="use327"
       style="fill:#f9faf8;fill-opacity:1" />
    <use
       x="70.570312"
       y="560.14062"
       xlink:href="#a"
       id="use329"
       style="fill:#f9faf8;fill-opacity:1" />
    <use
       x="70.601562"
       y="560.14062"
       xlink:href="#g"
       id="use331"
       style="fill:#f9faf8;fill-opacity:1" />
    <use
       x="70.628906"
       y="560.14062"
       xlink:href="#c"
       id="use333"
       style="fill:#f9faf8;fill-opacity:1" />
    <use
       x="70.664062"
       y="560.14062"
       xlink:href="#u"
       id="use335"
       style="fill:#f9faf8;fill-opacity:1" />
    <use
       x="70.691406"
       y="560.14062"
       xlink:href="#g"
       id="use337"
       style="fill:#f9faf8;fill-opacity:1" />
    <use
       x="70.722656"
       y="560.14062"
       xlink:href="#t"
       id="use339"
       style="fill:#f9faf8;fill-opacity:1" />
    <use
       x="70.75"
       y="560.14062"
       xlink:href="#a"
       id="use341"
       style="fill:#f9faf8;fill-opacity:1" />
    <use
       x="70"
       y="560.1875"
       xlink:href="#s"
       id="use343"
       style="fill:#f9faf8;fill-opacity:1" />
    <use
       x="70.019531"
       y="560.1875"
       xlink:href="#e"
       id="use345"
       style="fill:#f9faf8;fill-opacity:1" />
    <use
       x="70.042969"
       y="560.1875"
       xlink:href="#c"
       id="use347"
       style="fill:#f9faf8;fill-opacity:1" />
    <use
       x="70.074219"
       y="560.1875"
       xlink:href="#r"
       id="use349"
       style="fill:#f9faf8;fill-opacity:1" />
    <use
       x="70.140625"
       y="560.1875"
       xlink:href="#d"
       id="use351"
       style="fill:#f9faf8;fill-opacity:1" />
    <use
       x="70.164062"
       y="560.1875"
       xlink:href="#q"
       id="use353"
       style="fill:#f9faf8;fill-opacity:1" />
    <use
       x="70.195312"
       y="560.1875"
       xlink:href="#b"
       id="use355"
       style="fill:#f9faf8;fill-opacity:1" />
    <use
       x="70.242188"
       y="560.1875"
       xlink:href="#p"
       id="use357"
       style="fill:#f9faf8;fill-opacity:1" />
    <use
       x="70.28125"
       y="560.1875"
       xlink:href="#c"
       id="use359"
       style="fill:#f9faf8;fill-opacity:1" />
    <use
       x="70.316406"
       y="560.1875"
       xlink:href="#o"
       id="use361"
       style="fill:#f9faf8;fill-opacity:1" />
    <use
       x="70.347656"
       y="560.1875"
       xlink:href="#f"
       id="use363"
       style="fill:#f9faf8;fill-opacity:1" />
    <use
       x="70.398438"
       y="560.1875"
       xlink:href="#h"
       id="use365"
       style="fill:#f9faf8;fill-opacity:1" />
    <use
       x="70.433594"
       y="560.1875"
       xlink:href="#e"
       id="use367"
       style="fill:#f9faf8;fill-opacity:1" />
    <use
       x="70.453125"
       y="560.1875"
       xlink:href="#c"
       id="use369"
       style="fill:#f9faf8;fill-opacity:1" />
    <use
       x="70.488281"
       y="560.1875"
       xlink:href="#n"
       id="use371"
       style="fill:#f9faf8;fill-opacity:1" />
    <use
       x="70.503906"
       y="560.1875"
       xlink:href="#b"
       id="use373"
       style="fill:#f9faf8;fill-opacity:1" />
    <use
       x="70.535156"
       y="560.1875"
       xlink:href="#m"
       id="use375"
       style="fill:#f9faf8;fill-opacity:1" />
    <use
       x="70.5625"
       y="560.1875"
       xlink:href="#d"
       id="use377"
       style="fill:#f9faf8;fill-opacity:1" />
  </g>
</svg>
